<svg version="1" xmlns="http://www.w3.org/2000/svg" width="682.667" height="682.667" viewBox="0 0 512.000000 512.000000"><path d="M102.8 55.9c-3.9 2.5-11.8 11.9-10.9 13 .1.2-.1.7-.6 1-.9.6-5.3 10.4-5.7 12.6-.1.5-.7 2.6-1.4 4.5-1.4 4.3-4.9 21.5-5.8 29-.9 6.7-.9 10.3 0 25 .4 6.3.9 13.7 1.1 16.5.2 2.7.6 8.1 1 12 .3 3.8.8 9 1 11.5.2 2.5.6 6.5 1 9 .6 4.6 1.1 9.4 2 19 .5 5.6.9 8.9 2 17 .3 2.5.8 5.8 1 7.5 1.3 12.1 2.2 18 2.5 18 .1 0 .3 1.8.5 4s1.1 7.4 1.9 11.5c.8 4.1 1.7 8.8 2 10.5 1 5.1 4.7 17.9 7.6 26 5.3 15 16.7 33.8 27.2 44.7 2.4 2.5 6.6 7 9.4 10 4.5 4.7 10 9.8 21.8 19.8 1.6 1.4 3.5 3.1 4.2 3.7.7.7 1.5 1.3 1.9 1.3.4 0 1.2.6 2 1.2 1.6 1.6 4.6 3.9 6.7 5.3.8.5 4.9 3.4 9.1 6.2 4.2 2.9 8.1 5.3 8.7 5.3.6 0 .8.5.5 1-.3.6-.2 1 .4 1 .5 0 4.9 2.3 9.8 5.1 4.8 2.9 9.4 5.2 10.1 5.2.6 0 1.2.4 1.2.9 0 .4.7.8 1.6.8.9 0 2.3.8 3.1 1.7.8 1 1.2 1.3.9.6-.4-.6 1.4-.1 3.9 1.2 2.5 1.4 4.7 2.5 5 2.5.3 0 2.6 1 5.2 2.1 4.9 2.1 23.6 8.8 26.3 9.4.8.2 4.7 1.1 8.5 2 8.1 2 8.4 2 14.8 2.9 2.7.4 5.9.9 7 1.2 4.1.8 30.6 2 32.7 1.5.3-.1 4.6-.3 9.5-.6 9-.3 17.7-1.2 20.5-2 .8-.3 3.3-.7 5.5-1 6.8-1.1 21.1-4.9 26.5-7.2.8-.3 1.7-.7 2-.7 2.7-.6 14-5.9 19.9-9.4 10.5-6.1 13.6-8.6 21.7-16.6 6.7-6.8 16.3-19.6 14.7-19.6-.4 0-.3-.4.3-.8 2.3-1.6 6.9-13.6 8.2-21.7 1.3-8 .7-31.8-.9-34-.4-.6-.9-2.4-1.2-4-.2-1.7-.7-3.9-1.1-5-3.4-8.8-5.2-13.4-6.3-15.5-.7-1.4-1.3-3-1.3-3.7 0-.6-.3-1.3-.7-1.5-.5-.2-1.9-2.3-3.2-4.8-2.8-5.3-11.9-19-15.8-24-3.5-4.4-23.9-24.7-27.9-27.7-8.3-6.4-14.3-10.9-16-12.1-6.3-4.3-21.6-14.2-21.9-14.2-.3 0-4.5-2.5-9.6-5.5-5-3-9.3-5.5-9.5-5.5-.2 0-2.7-1.4-5.6-3.1-2.9-1.8-7.5-4.4-10.3-5.9-2.7-1.5-6.4-3.6-8.2-4.6-7.5-4.5-16.9-9.9-17.8-10.3-.5-.2-1.2-.7-1.5-1-.3-.4-3-2.2-6-4.1-12.7-7.9-30.7-21.8-42.4-32.5-1.2-1.2-4.5-3.9-7.2-6-2.7-2.2-5.1-4.2-5.4-4.5-1.4-1.4-30.5-24.6-38.5-30.8C180 89.2 165.4 79 164.1 79c-.7 0-.9-.5-.6-1 .3-.6.2-1-.4-1-.5 0-5.2-2.6-10.3-5.8-5.1-3.1-11.1-6.6-13.3-7.7-2.2-1.1-4.3-2.4-4.6-2.8-.3-.5-.9-.9-1.2-.8-.4 0-2.8-.9-5.4-2.1-6-2.7-13.9-4.8-17.9-4.8-1.6 0-5.1 1.3-7.6 2.9zM120.2 67c2.3 1.1 4.5 2 4.9 2 1 0 16.6 9 23.7 13.7 12.2 8 39.5 27.7 43 31 .7.7 2.6 2 4.2 3 1.7.9 3 2 3 2.4 0 .3 2.2 2.1 5 4 5.8 4 9.2 7.6 13 14.4 4.2 7.2 9.4 17.9 9.2 18.7-.1.5.3.8.8.8s.9.3.8.7c-.1.5.6 2.6 1.6 4.8 4 9.2 9 26.1 10.2 34.6.8 5.6 1.2 21.1.5 22.4-.2.5-.6 1.8-.8 3-.5 3.9-.9 5-3.5 10.6-2.8 6-10.2 14-14.9 16.1-1.6.7-2.9 1.7-2.9 2.1 0 .5-.4.6-.8.3-.4-.2-2.1.2-3.7.9-7.1 3.4-20.5 5.4-33.9 5-7.2-.1-14.2-.5-15.6-.9-1.4-.3-4.7-1.1-7.5-1.7-2.7-.6-5.6-1.6-6.2-2.2-.7-.5-1.3-.7-1.3-.3 0 .4-1.3 0-3-.9-1.6-.9-3-1.3-3-1 0 .4-1.3-.3-2.9-1.4-1.6-1.2-3.2-2.1-3.6-2.1-.6 0-9.5-5.8-10.5-6.9-2.8-3.1-7.1-6.2-8.9-6.6-2.6-.5-7.1 3.4-7.1 6.2 0 2 11.6 13.3 13.7 13.3.7 0 1.3.4 1.3.8 0 1.1 13.3 7.7 20.7 10.3 23 8 56 7.4 75.3-1.4 14-6.4 25-18.3 28.5-31 .2-.4.3-.8.5-1 .3-.4 1.1-3.9 1.8-8.2.7-4.5.7-22.9-.1-26-.2-1.1-1-5.1-1.7-8.9-.7-3.9-3.1-12-5.2-18-2.2-6.1-4-11.7-4-12.4-.1-.6-.5-1.2-.9-1.2-.3 0-.9-.9-1.2-2-.7-2.9.2-2.5 5 1.7 6.7 6.1 8.3 7.4 19.3 15.5 5.8 4.3 11 8.2 11.7 8.8.7.5 1.5 1 1.8 1 .3 0 1.1.5 1.8 1 1.6 1.4 11 7.4 11.7 7.5.3 0 1.9 1 3.7 2.3 1.7 1.2 3.6 2.2 4.2 2.2.6 0 1.1.4 1.1.9s.8 1.1 1.8 1.4c2.4.8 9.6 5 10 5.9.2.5.8.8 1.4.8.5 0 3.5 1.5 6.5 3.2 5.1 3.1 5.8 4 10 12.7 8.2 17 15.7 41.1 16.7 52.9.2 2.7.6 5.4.9 5.8.7 1.2.1 29.2-.7 32.9-.4 1.6-1.1 4.5-1.7 6.3-.6 1.8-1.2 3.9-1.3 4.5-.3 1.9-4.8 13-6.5 15.7-6.9 11.7-16.8 23.1-21.2 24.5-1 .4-1.9 1.1-1.9 1.7 0 .6-.3.8-.6.5-.4-.4-1.9.2-3.3 1.2-3 2.1-9.7 4.4-18.9 6.4-6.3 1.4-30.4 1.6-36.2.3-1.3-.3-4.1-.8-6.2-1.1-4.8-.7-17.7-4.1-24.3-6.3-2.7-.9-5.2-1.7-5.5-1.7-1.2-.2-5.6-1.7-7.5-2.5-1.1-.4-6-2.5-11-4.5-4.9-2.1-11.6-5-14.7-6.6-3.2-1.5-5.8-2.6-5.8-2.3 0 .3-1.2-.3-2.7-1.3-1.6-1.1-5.4-3.2-8.5-4.9-5.5-2.7-6-2.8-8.5-1.4-3 1.7-3.8 3.8-2.9 7.5.5 1.8 4.1 4 16.8 10.3 14.3 7 21.1 10.2 22.8 10.7.3.1 1.4.5 2.5 1 10.6 4.1 15.2 5.8 16.5 6 .8.2 1.6.4 1.8.5.2.3.6.4 4.7 1.4 1.7.4 3.6.9 4.3 1.2.7.2 1.3.3 1.5.3.1 0 1.5.4 3 1s4.2 1.3 6 1.6c1.8.3 3.9.8 4.8 1.1 1 .2 3.2.7 5 1 1.9.2 5.2.8 7.4 1.1 5.4.9 31.8 1 37.5.1 10.2-1.6 25-7.7 32.9-13.6 4.9-3.6 14-13.4 17.3-18.5 1.5-2.3 3.2-4.8 3.8-5.5.6-.6.8-1.2.4-1.2s0-.8.8-1.8c2-2.2 6.5-12.9 8.8-20.8 1.6-5.3 2.2-9.1 3.6-19.4.5-3.7.5-22.2 0-24.5-.2-1.1-.7-4.9-1.1-8.5-.4-3.5-1.1-7.4-1.6-8.7-.5-1.3-.7-2.3-.4-2.3.2 0-.1-1.5-.6-3.3-1-3.2-1.5-5.2-2.3-8.5-.6-2.7-5.2-16.1-7.5-21.8l-2-5.2 6.9 4c3.9 2.2 7 4.5 7 4.9 0 .5.7.9 1.5.9.9 0 2.1.5 2.8 1 .7.6 5.5 4 10.7 7.7 5.2 3.7 10 7.2 10.6 7.8.7.5 3.1 2.6 5.5 4.5 4.8 3.8 21.1 20.1 24.7 24.6 4.1 5.3 11.9 16.9 14.3 21.4 1.3 2.5 2.7 4.7 3 5 1.1 1 6.8 15.6 8.9 23 4.5 15.9 3 37.5-3.5 49.5-4.9 9.1-20.8 26.5-25.5 28-1.1.4-2 1.1-2 1.6s-.5.9-1.1.9c-.6 0-2.5 1.1-4.2 2.4-4.7 3.5-19.3 10.2-30 13.7-16.5 5.5-32.4 7.7-54.2 7.4-17.9-.2-23.5-.6-29.5-2.1-1.4-.3-4-.8-5.8-1-1.8-.1-3.7-.6-4.2-.9-.6-.4-2.7-.9-4.7-1.1-2-.3-4.3-1-5-1.6-.7-.6-1.3-.8-1.3-.5 0 .3-1.5.1-3.2-.4-1.8-.6-3.7-1.1-4.3-1.3-3.2-.7-9.2-3-10.2-3.9-.7-.5-1.3-.7-1.3-.4 0 .6-1.7 0-11.5-4.1-6.6-2.7-30.9-15.2-32.6-16.8-.8-.8-1.9-1.4-2.3-1.4-.9 0-20.9-13.5-23-15.5-.9-.9-1.6-1.3-1.6-.9s-.8-.3-1.9-1.4c-1-1.2-2.3-2.2-2.9-2.2-.6 0-1.2-.3-1.4-.8-.2-.4-3.2-3.1-6.8-6.1-6.3-5.2-25.7-24.4-31.3-30.9-12-14-23.8-39.4-26.4-57.1l-.6-3.4 2.4 2.2c1.3 1.3 4.4 3.7 6.9 5.4 2.5 1.7 4.7 3.4 4.8 3.9.2.4.9.8 1.5.8s1.8.7 2.7 1.5c2.2 2 13 8.5 14 8.5.5 0 1 .3 1.2.7.4 1 17.3 9.4 24.8 12.3 7.1 2.8 16.6 6 21 7 19.5 4.6 24.1 5.2 39.5 5.3 16.2.1 26.9-1.8 40.7-6.9 3.8-1.4 7-3 7.4-3.5.3-.5 1-.7 1.5-.4.5.4.9.2.9-.3s.8-1.2 1.8-1.5c2.3-.8 7-3.8 9.7-6.2 1.2-1.1 3-2.7 4.1-3.6 4-3.3 14.3-16.9 12.8-16.9-.3 0-.1-.6.5-1.3 2.6-3.2 5.3-14.5 5.6-23.7.5-13.9-3.7-33.1-8.6-39.4-2.5-3.2-6.7-3.5-9.3-.5-1.9 2.2-1.7 4.6.9 10.4 1.3 2.9 2.6 7.4 3.1 10.5.1.8.6 2.6.9 4 1.3 5 1.2 18.6-.2 24-4 15.8-17.4 30.6-33 36.4-2.1.8-4.7 1.7-5.8 2.2-2.8 1-3.6 1.2-7 1.9-1.6.3-3.6.8-4.4 1.1-5.8 2-35 2.3-40.1.4-.3-.2-.8-.2-1.2-.2-1.5.2-14.3-2.8-22.3-5.3-3.3-1-6.4-1.9-7-2.1-.5-.1-2.8-1-5-1.9-5.8-2.5-8.9-3.8-9.5-4-1.1-.3-8.5-4-9-4.5-.3-.3-2.3-1.4-4.5-2.5-3.7-1.9-15.8-9-18-10.7-.5-.5-3.5-2.6-6.5-4.8-3-2.2-6.4-4.7-7.5-5.5-1.1-.9-3.3-2.6-4.8-3.8-7.1-5.6-9.1-7.9-9.3-10.5-.1-1.5-.3-2.7-.4-2.7-.3 0-.9-4-1.4-9.5-.3-3-.8-6.6-1.1-8-.2-1.4-.6-4.8-.9-7.5-.3-2.8-.7-6.6-1-8.5-.8-5.1-1.6-11.8-2.1-17.7-.3-2.8-.7-6.9-.9-9-.5-3.9-1.3-12.4-2.1-22.8l-.5-6 3.1 3.5c16.6 18.5 23.5 25.7 31 31.9 1.7 1.4 4.3 3.6 5.8 4.8 1.4 1.3 6.3 4.2 10.8 6.4 9.9 5.1 16.6 5.5 25.4 1.8 17.7-7.5 26.3-28.9 20.5-50.4-.2-.6-.7-2.4-1.1-4-1-3.7-5.8-12.6-9.9-18.4-1.7-2.4-3.5-5.1-4.1-6-.5-.9-1.2-1.8-1.5-2.1-.3-.3-4.4-5.7-9.1-12-14.5-19.3-17.4-21.5-21.9-17-3.6 3.6-2.8 5.1 10.5 21.8.5.7 1.5 1.8 2 2.5.6.7 3.2 4.2 5.8 7.9 2.6 3.6 5.4 7.3 6.2 8.1.8.8 1.2 1.7.9 1.9-.2.3.5 1.3 1.6 2.3 1.1 1 2 2.2 2 2.8 0 .5.9 2.1 1.9 3.6 4.8 6.7 7.6 20.7 5.8 28.6-.5 2.2-1 4.4-1.1 5-.3 1.7-4 7.5-4.7 7.5-.4 0-1 .8-1.3 1.8-.4 1-2.6 2.8-5 4.1-7.3 3.6-13.8 2.8-22.1-2.8-6.7-4.5-6.8-4.6-20.4-18.2-12.7-12.7-18.2-18.8-24.8-27.6-2-2.6-4.6-5.9-5.8-7.3-1.5-1.7-2.3-4.1-2.5-7.5-.5-7.9-.4-9.6.4-16.5 1.1-9 1.2-9.1 1.9-12.5.4-1.7 1-4 1.2-5.3.5-2.1.9-3.8 1.9-8 1.7-6.3 6.1-17.5 8.1-20.1 5.8-7.6 9.3-8.7 16.7-5.1z"/></svg>